<svg width="129" height="70" viewBox="0 0 129 70" fill="none" xmlns="http://www.w3.org/2000/svg">
<path fill-rule="evenodd" clip-rule="evenodd" d="M0.641602 70H30H62.97H67H100H129V69.8938C113.389 64.7761 101.763 50.8605 99.9863 34.0089C99.9583 33.0031 99.8879 32.0078 99.7769 31.0249C99.7769 31.0166 99.7759 31.0083 99.7759 31H99.7739C97.7891 13.5537 82.9775 0 65 0C47.0225 0 32.2109 13.5537 30.2261 31H30.1941C30.1885 31.1605 30.1821 31.3207 30.1748 31.4807C30.1399 31.8313 30.1101 32.1835 30.0854 32.537C30.062 32.8741 30.0432 33.2126 30.0293 33.5524C28.4048 50.7271 16.5596 64.9257 0.641602 70Z" fill="black"/>
</svg>
